<svg preserveAspectRatio="none" overflow="visible" style="display: block;" width="13.75" height="11.25" viewBox="0 0 13.75 11.25" fill="none" xmlns="http://www.w3.org/2000/svg">
<g id="Container">
<path id="Icon" d="M6.875 11.25L2.5 8.875V5.125L0 3.75L6.875 0L13.75 3.75V8.75H12.5V4.4375L11.25 5.125V8.875L6.875 11.25V11.25M6.875 6.0625L11.1562 3.75L6.875 1.4375L2.59375 3.75L6.875 6.0625V6.0625M6.875 9.82812L10 8.14062V5.78125L6.875 7.5L3.75 5.78125V8.14062L6.875 9.82812V9.82812M6.875 6.0625V6.0625V6.0625V6.0625V6.0625V6.0625M6.875 7.46875V7.46875V7.46875V7.46875V7.46875V7.46875V7.46875V7.46875V7.46875V7.46875M6.875 7.46875V7.46875V7.46875V7.46875V7.46875V7.46875V7.46875V7.46875V7.46875V7.46875" fill="#00668A"/>
</g>
</svg>
